<svg width="9" height="15" viewBox="0 0 9 15" fill="none" xmlns="http://www.w3.org/2000/svg">
<path fill-rule="evenodd" clip-rule="evenodd" d="M2.50753 1.20735C2.38511 1.07377 2.22128 1 2.04672 1C1.87217 1 1.70834 1.07377 1.58591 1.20735L1.1954 1.63342C0.941319 1.91097 0.941319 2.36207 1.1954 2.6393L5.6477 7.4974L1.19034 12.3604C1.06762 12.4943 1 12.673 1 12.8631C1 13.0539 1.06762 13.2324 1.19034 13.3666L1.58085 13.7923C1.70357 13.9262 1.8674 14 2.04166 14C2.21621 14 2.38004 13.9262 2.50277 13.7923L7.80996 8.0018C7.93268 7.86758 8.0003 7.68817 8 7.4974C8.0003 7.3063 7.93268 7.1269 7.80996 6.99267L2.50753 1.20735Z" fill="white"/>
<path d="M2.50753 1.20735C2.38511 1.07377 2.22128 1 2.04672 1C1.87217 1 1.70834 1.07377 1.58591 1.20735L1.1954 1.63342C0.941319 1.91098 0.941319 2.36208 1.1954 2.6393L5.6477 7.4974L1.19034 12.3604C1.06762 12.4943 1 12.673 1 12.8631C1 13.0539 1.06762 13.2324 1.19034 13.3666L1.58085 13.7923C1.70357 13.9262 1.8674 14 2.04166 14C2.21621 14 2.38004 13.9262 2.50277 13.7923L7.80996 8.0018C7.93268 7.86758 8.0003 7.68817 8 7.4974C8.0003 7.3063 7.93268 7.1269 7.80996 6.99267L2.50753 1.20735" stroke="white" stroke-width="0.52"/>
</svg>
