<svg width="17" height="17" viewBox="0 0 17 17" fill="none" xmlns="http://www.w3.org/2000/svg">
<path fill-rule="evenodd" clip-rule="evenodd" d="M6.26076 6.41927C6.26076 6.81027 5.94063 7.1276 5.54618 7.1276C5.15174 7.1276 4.83161 6.81027 4.83196 6.41927V3.65677C4.83196 1.6405 6.48692 0 8.5206 0C10.5546 0 12.2096 1.6405 12.2096 3.65677V6.41927C12.2096 6.81027 11.8895 7.1276 11.495 7.1276C11.1006 7.1276 10.7804 6.81027 10.7804 6.41927V3.65677C10.7804 2.42179 9.76646 1.41667 8.5206 1.41667C7.27438 1.41667 6.26076 2.42179 6.26076 3.65677V6.41927ZM12.9242 5.53598H16.7175C16.9151 5.53598 17.0366 5.68969 16.9901 5.87988L14.4905 15.9729C14.3387 16.5399 13.737 17 13.1446 17H3.85514C3.26311 17 2.66108 16.5403 2.50995 15.9729L0.0100075 5.87988C-0.0367972 5.69004 0.0850379 5.53598 0.282261 5.53598H4.11739V6.41927C4.11739 7.20056 4.75836 7.83594 5.54654 7.83594C6.33471 7.83594 6.97569 7.20056 6.97569 6.41927V5.53598H10.0659V6.41927C10.0659 7.20056 10.7072 7.83594 11.495 7.83594C12.2832 7.83594 12.9242 7.20056 12.9242 6.41927V5.53598Z" fill="white"/>
</svg>
