<svg width="12" height="7" viewBox="0 0 12 7" fill="none" xmlns="http://www.w3.org/2000/svg">
<path fill-rule="evenodd" clip-rule="evenodd" d="M11.8083 5.4923C11.9321 5.61494 12 5.77884 12 5.95321C12 6.12787 11.9321 6.29149 11.8083 6.41412L11.4152 6.80471C11.1588 7.0587 10.7426 7.0587 10.4868 6.80471L6.00263 2.35193L1.51317 6.80965C1.38966 6.93229 1.22488 7 1.04927 7C0.873366 7 0.708585 6.93229 0.584781 6.80965L0.191707 6.41906C0.0681951 6.29643 0 6.13281 0 5.95815C0 5.78378 0.0681951 5.61988 0.191707 5.49724L5.53668 0.190064C5.66078 0.0671353 5.82615 -0.00057745 6.00234 3.8147e-06C6.17883 -0.00057745 6.34449 0.0671353 6.46829 0.190064L11.8083 5.4923Z" fill="#654A9D"/>
</svg>
