<svg width="8" height="5" viewBox="0 0 8 5" fill="none" xmlns="http://www.w3.org/2000/svg">
<path fill-rule="evenodd" clip-rule="evenodd" d="M7.8722 3.92307C7.95473 4.01067 8 4.12775 8 4.25229C8 4.37705 7.95473 4.49392 7.8722 4.58152L7.61015 4.86051C7.43922 5.04193 7.16176 5.04193 6.99122 4.86051L4.00176 1.67995L1.00878 4.86403C0.926439 4.95163 0.816585 5 0.699512 5C0.582244 5 0.47239 4.95163 0.389854 4.86403L0.127805 4.58505C0.0454634 4.49745 0 4.38058 0 4.25582C0 4.13127 0.0454634 4.0142 0.127805 3.9266L3.69112 0.13576C3.77385 0.0479536 3.8841 -0.000412464 4.00156 2.86102e-06C4.11922 -0.000412464 4.22966 0.0479536 4.3122 0.13576L7.8722 3.92307Z" fill="#0A0B09"/>
</svg>
