<svg width="22" height="18" viewBox="0 0 22 18" fill="none" xmlns="http://www.w3.org/2000/svg">
<path fill-rule="evenodd" clip-rule="evenodd" d="M21.4295 1.92951H7.87063V1.40231C7.87063 0.62907 7.23091 0 6.44458 0H4.23169C3.44536 0 2.80564 0.62907 2.80564 1.40231V1.92951H0.57041C0.255363 1.92951 0 2.1807 0 2.49046C0 2.80023 0.255363 3.05138 0.57041 3.05138H2.80556V3.57841C2.80556 4.35165 3.44528 4.98072 4.23161 4.98072H6.44454C7.23087 4.98072 7.87059 4.35165 7.87059 3.57841V3.05138H21.4295C21.7446 3.05138 21.9999 2.80018 21.9999 2.49046C22 2.1807 21.7446 1.92951 21.4295 1.92951ZM21.4296 8.17711H19.1944V7.64975C19.1944 6.87651 18.5547 6.24744 17.7684 6.24744H15.5554C14.7691 6.24744 14.1294 6.87651 14.1294 7.64975V8.17711H0.57041C0.255363 8.17711 0 8.42827 0 8.73803C0 9.04779 0.255363 9.29894 0.57041 9.29894H14.1293V9.8258C14.1293 10.599 14.769 11.2281 15.5554 11.2281H17.7683C18.5546 11.2281 19.1944 10.599 19.1944 9.8258V9.29894H21.4295C21.7446 9.29894 22 9.04775 22 8.73803C22 8.42827 21.7446 8.17711 21.4296 8.17711ZM11.8779 14.8835H21.4296C21.7446 14.8835 22 15.1347 22 15.4445C22 15.7542 21.7446 16.0054 21.4295 16.0054H11.8779V16.5326C11.8779 17.3058 11.2382 17.9349 10.4518 17.9349H8.23891C7.45259 17.9349 6.81287 17.3058 6.81287 16.5326V16.0054H0.57041C0.255363 16.0054 0 15.7542 0 15.4445C0 15.1347 0.255363 14.8835 0.57041 14.8835H6.81291V14.3565C6.81291 13.5833 7.45263 12.9542 8.23896 12.9542H10.4519C11.2382 12.9542 11.8779 13.5833 11.8779 14.3565V14.8835Z" fill="#4F318C"/>
</svg>
