<?xml version="1.0" encoding="utf-8"?><svg width="17" height="17" fill="none" xmlns="http://www.w3.org/2000/svg" viewBox="0 0 17 17"><path fill-rule="evenodd" clip-rule="evenodd" d="M6.26 6.42c0 .39-.32.708-.714.708a.711.711 0 01-.714-.709V3.657C4.832 1.64 6.487 0 8.521 0s3.689 1.64 3.689 3.657v2.762c0 .391-.32.709-.715.709a.712.712 0 01-.715-.709V3.657a2.253 2.253 0 00-2.26-2.24 2.253 2.253 0 00-2.26 2.24v2.762zm6.664-.884h3.794c.197 0 .319.154.272.344l-2.5 10.093C14.34 16.54 13.738 17 13.146 17h-9.29c-.592 0-1.194-.46-1.345-1.027L.01 5.88c-.047-.19.075-.344.272-.344h3.835v.883c0 .782.641 1.417 1.43 1.417.788 0 1.429-.635 1.429-1.417v-.883h3.09v.883c0 .782.641 1.417 1.429 1.417s1.43-.635 1.43-1.417v-.883z" fill="#fff"/></svg>