<?xml version="1.0" encoding="utf-8"?><svg width="9" height="15" fill="none" xmlns="http://www.w3.org/2000/svg" viewBox="0 0 9 15"><path fill-rule="evenodd" clip-rule="evenodd" d="M2.508 1.207A.621.621 0 002.047 1a.621.621 0 00-.461.207l-.39.426a.759.759 0 000 1.006l4.452 4.858L1.19 12.36a.74.74 0 00-.19.503c0 .19.068.37.19.504l.39.425a.621.621 0 00.462.208.621.621 0 00.46-.208l5.308-5.79A.742.742 0 008 7.497a.743.743 0 00-.19-.504L2.508 1.207z" fill="#fff"/><path d="M2.508 1.207A.621.621 0 002.047 1a.621.621 0 00-.461.207l-.39.426a.759.759 0 000 1.006l4.452 4.858L1.19 12.36a.74.74 0 00-.19.503c0 .19.068.37.19.504l.39.425a.621.621 0 00.462.208.621.621 0 00.46-.208l5.308-5.79A.742.742 0 008 7.497a.743.743 0 00-.19-.504L2.508 1.207" stroke="#fff" stroke-width=".52"/></svg>