<?xml version="1.0" encoding="utf-8"?><svg width="22" height="18" fill="none" xmlns="http://www.w3.org/2000/svg" viewBox="0 0 22 18"><path fill-rule="evenodd" clip-rule="evenodd" d="M21.43 1.93H7.87v-.528C7.87.63 7.23 0 6.446 0H4.232c-.787 0-1.426.63-1.426 1.402v.528H.57a.566.566 0 00-.57.56c0 .31.255.561.57.561h2.236v.527c0 .774.64 1.403 1.426 1.403h2.213c.786 0 1.426-.63 1.426-1.403v-.527H21.43c.315 0 .57-.25.57-.56a.566.566 0 00-.57-.561zm0 6.247h-2.236V7.65c0-.773-.64-1.403-1.426-1.403h-2.213c-.786 0-1.426.63-1.426 1.403v.527H.57a.566.566 0 00-.57.561c0 .31.255.56.57.56h13.56v.528c0 .773.639 1.402 1.425 1.402h2.213c.787 0 1.426-.629 1.426-1.402v-.527h2.236c.315 0 .57-.251.57-.561 0-.31-.255-.56-.57-.56zm-9.552 6.707h9.552c.315 0 .57.25.57.56 0 .31-.255.561-.57.561h-9.552v.528c0 .773-.64 1.402-1.426 1.402H8.239c-.786 0-1.426-.63-1.426-1.402v-.528H.57a.566.566 0 01-.57-.56c0-.31.255-.562.57-.562h6.243v-.526c0-.774.64-1.403 1.426-1.403h2.213c.786 0 1.426.63 1.426 1.402v.527z" fill="#4F318C"/></svg>