<?xml version="1.0" encoding="utf-8"?><svg viewBox="0 0 22 19" xmlns="http://www.w3.org/2000/svg" xmlns:xlink="http://www.w3.org/1999/xlink"><style>:root>svg{display:none}:root>svg:target{display:block}</style><svg fill="none" viewBox="0 0 6 9" id="ico_arrow-down-purple" xmlns="http://www.w3.org/2000/svg"><path fill-rule="evenodd" clip-rule="evenodd" d="M2.822 8.425L.575 6.17a.253.253 0 010-.36.257.257 0 01.359 0l1.813 1.823V.752C2.747.612 2.862.5 3 .5a.25.25 0 01.252.252v6.882L5.07 5.81a.253.253 0 01.355.36L3.176 8.425c-.096.1-.256.1-.354 0z" fill="#B0A4C9" stroke="#806CA9" stroke-width=".4"/></svg><svg fill="none" viewBox="0 0 6 9" id="ico_arrow-down-white" xmlns="http://www.w3.org/2000/svg"><path fill-rule="evenodd" clip-rule="evenodd" d="M3.178 8.425L5.425 6.17c.1-.098.1-.26 0-.36a.257.257 0 00-.359 0L3.253 7.634V.752A.254.254 0 003 .5a.25.25 0 00-.252.252v6.882L.93 5.81a.253.253 0 00-.355.36l2.249 2.254c.096.1.256.1.354 0z" fill="#fff" stroke="#fff" stroke-width=".4"/></svg><svg fill="none" viewBox="0 0 17 12" id="ico_arrow-right-purple" xmlns="http://www.w3.org/2000/svg"><path fill-rule="evenodd" clip-rule="evenodd" d="M11.275.665a.574.574 0 00-.806 0 .548.548 0 000 .782l4.088 3.997H1.066a.557.557 0 00-.566.554c0 .305.25.56.566.56h13.491l-4.088 3.988a.557.557 0 000 .789c.225.22.587.22.806 0L16.33 6.39a.533.533 0 000-.779L11.275.665z" fill="#654A9D"/></svg><svg fill="none" viewBox="0 0 11 13" id="ico_arrow-up-purple" xmlns="http://www.w3.org/2000/svg"><path fill-rule="evenodd" clip-rule="evenodd" d="M9.865 6.068a.44.44 0 01-.64 0l-3.27-3.436v8.892c0 .265-.201.476-.453.476a.468.468 0 01-.458-.476V2.633L1.78 6.068a.447.447 0 01-.646 0 .492.492 0 010-.677L5.18 1.14a.429.429 0 01.637 0l4.048 4.25c.18.183.18.487 0 .677z" fill="#7257A9" stroke="#7257A9" stroke-width="1.008"/></svg><svg fill="none" viewBox="0 0 17 17" id="ico_cart" xmlns="http://www.w3.org/2000/svg"><path fill-rule="evenodd" clip-rule="evenodd" d="M6.26 6.42c0 .39-.32.708-.714.708a.711.711 0 01-.714-.709V3.657C4.832 1.64 6.487 0 8.521 0s3.689 1.64 3.689 3.657v2.762c0 .391-.32.709-.715.709a.712.712 0 01-.715-.709V3.657a2.253 2.253 0 00-2.26-2.24 2.253 2.253 0 00-2.26 2.24v2.762zm6.664-.884h3.794c.197 0 .319.154.272.344l-2.5 10.093C14.34 16.54 13.738 17 13.146 17h-9.29c-.592 0-1.194-.46-1.345-1.027L.01 5.88c-.047-.19.075-.344.272-.344h3.835v.883c0 .782.641 1.417 1.43 1.417.788 0 1.429-.635 1.429-1.417v-.883h3.09v.883c0 .782.641 1.417 1.429 1.417s1.43-.635 1.43-1.417v-.883z" fill="#fff"/></svg><svg fill="none" viewBox="0 0 22 18" id="ico_filter" xmlns="http://www.w3.org/2000/svg"><path fill-rule="evenodd" clip-rule="evenodd" d="M21.43 1.93H7.87v-.528C7.87.63 7.23 0 6.446 0H4.232c-.787 0-1.426.63-1.426 1.402v.528H.57a.566.566 0 00-.57.56c0 .31.255.561.57.561h2.236v.527c0 .774.64 1.403 1.426 1.403h2.213c.786 0 1.426-.63 1.426-1.403v-.527H21.43c.315 0 .57-.25.57-.56a.566.566 0 00-.57-.561zm0 6.247h-2.236V7.65c0-.773-.64-1.403-1.426-1.403h-2.213c-.786 0-1.426.63-1.426 1.403v.527H.57a.566.566 0 00-.57.561c0 .31.255.56.57.56h13.56v.528c0 .773.639 1.402 1.425 1.402h2.213c.787 0 1.426-.629 1.426-1.402v-.527h2.236c.315 0 .57-.251.57-.561 0-.31-.255-.56-.57-.56zm-9.552 6.707h9.552c.315 0 .57.25.57.56 0 .31-.255.561-.57.561h-9.552v.528c0 .773-.64 1.402-1.426 1.402H8.239c-.786 0-1.426-.63-1.426-1.402v-.528H.57a.566.566 0 01-.57-.56c0-.31.255-.562.57-.562h6.243v-.526c0-.774.64-1.403 1.426-1.403h2.213c.786 0 1.426.63 1.426 1.402v.527z" fill="#4F318C"/></svg><svg fill="none" viewBox="0 0 17 12" id="ico_pagination" xmlns="http://www.w3.org/2000/svg"><path fill-rule="evenodd" clip-rule="evenodd" d="M11.275.665a.574.574 0 00-.806 0 .548.548 0 000 .782l4.088 3.997H1.066a.557.557 0 00-.566.554c0 .305.25.56.566.56h13.491l-4.088 3.988a.557.557 0 000 .789c.225.22.587.22.806 0L16.33 6.39a.533.533 0 000-.779L11.275.665z" fill="#654A9D"/></svg><svg fill="none" viewBox="0 0 19 18" id="ico_sorting-1" xmlns="http://www.w3.org/2000/svg"><rect width="5" height="7.2" rx="1" fill="#654A9D"/><rect x="7" width="5" height="7.2" rx="1" fill="#654A9D"/><rect x="14" width="5" height="7.2" rx="1" fill="#654A9D"/><rect y="10.8" width="5" height="7.2" rx="1" fill="#654A9D"/><rect x="7" y="10.8" width="5" height="7.2" rx="1" fill="#654A9D"/><rect x="14" y="10.8" width="5" height="7.2" rx="1" fill="#654A9D"/></svg><svg fill="none" viewBox="0 0 19 19" id="ico_sorting-2" xmlns="http://www.w3.org/2000/svg"><rect width="5" height="4.2" rx="1" fill="#654A9D"/><rect x="7" width="12" height="4.2" rx="1" fill="#654A9D"/><rect y="7" width="5" height="4.2" rx="1" fill="#654A9D"/><rect x="7" y="7" width="12" height="4.2" rx="1" fill="#654A9D"/><rect y="14" width="5" height="4.2" rx="1" fill="#654A9D"/><rect x="7" y="14" width="12" height="4.2" rx="1" fill="#654A9D"/></svg><svg fill="none" viewBox="0 0 12 9" id="ico_tick" xmlns="http://www.w3.org/2000/svg"><path d="M10.862.136a.475.475 0 00-.666 0L4.656 5.62 1.801 2.776a.473.473 0 00-.665 0l-1 .989a.465.465 0 000 .66L4.32 8.591c.183.18.48.18.666 0l6.875-6.807a.463.463 0 000-.662l-1-.987z" fill="#654A9D"/></svg><svg fill="none" viewBox="0 0 9 15" id="ico_to-right-white" xmlns="http://www.w3.org/2000/svg"><path fill-rule="evenodd" clip-rule="evenodd" d="M2.508 1.207A.621.621 0 002.047 1a.621.621 0 00-.461.207l-.39.426a.759.759 0 000 1.006l4.452 4.858L1.19 12.36a.74.74 0 00-.19.503c0 .19.068.37.19.504l.39.425a.621.621 0 00.462.208.621.621 0 00.46-.208l5.308-5.79A.742.742 0 008 7.497a.743.743 0 00-.19-.504L2.508 1.207z" fill="#fff"/><path d="M2.508 1.207A.621.621 0 002.047 1a.621.621 0 00-.461.207l-.39.426a.759.759 0 000 1.006l4.452 4.858L1.19 12.36a.74.74 0 00-.19.503c0 .19.068.37.19.504l.39.425a.621.621 0 00.462.208.621.621 0 00.46-.208l5.308-5.79A.742.742 0 008 7.497a.743.743 0 00-.19-.504L2.508 1.207" stroke="#fff" stroke-width=".52"/></svg><svg fill="none" viewBox="0 0 8 5" id="ico_to-top-black" xmlns="http://www.w3.org/2000/svg"><path fill-rule="evenodd" clip-rule="evenodd" d="M7.872 3.923a.477.477 0 01.128.33.477.477 0 01-.128.329l-.262.279a.42.42 0 01-.619 0L4.001 1.68 1.01 4.864a.422.422 0 01-.62 0l-.261-.279A.478.478 0 010 4.255c0-.124.045-.24.128-.328L3.69.136a.422.422 0 01.621 0l3.56 3.787z" fill="#0A0B09"/></svg><svg fill="none" viewBox="0 0 12 7" id="ico_to-top-purple" xmlns="http://www.w3.org/2000/svg"><path fill-rule="evenodd" clip-rule="evenodd" d="M11.808 5.492a.644.644 0 01.192.461.644.644 0 01-.192.461l-.393.39a.66.66 0 01-.928 0L6.003 2.353 1.513 6.81A.654.654 0 011.05 7a.655.655 0 01-.464-.19l-.393-.39A.645.645 0 010 5.957c0-.174.068-.338.192-.46L5.537.19A.654.654 0 016.002 0c.177 0 .342.067.466.19l5.34 5.302z" fill="#654A9D"/></svg></svg>